<svg width="1412" height="923" viewBox="0 0 1412 923" fill="none" xmlns="http://www.w3.org/2000/svg">
<g filter="url(#filter0_d_94_279)">
<path d="M544.032 230.782L735.228 230.782L735.228 421.833L544.032 421.833L544.032 230.782Z" fill="#F9E050"/>
<path d="M262.466 703.181L453.662 703.181L453.662 842.905L262.466 842.905L262.466 703.181Z" fill="#F4F464"/>
<path d="M403.248 562.507L594.444 562.507L594.444 753.558L403.248 753.558L403.248 562.507ZM-19 562.507L121.781 562.507L121.781 703.182L-19 703.182L-19 562.507ZM262.467 422.023L403.248 422.023L403.248 562.697L262.467 562.697L262.467 422.023Z" fill="#F4F464"/>
<path d="M544.031 90.4859L735.227 90.4859L735.227 281.537L544.031 281.537L544.031 90.4859Z" fill="#F9B038"/>
<path d="M493.707 -6.10352e-05L735.128 -6.26752e-05L735.128 140.674L493.707 140.674L493.707 -6.10352e-05Z" fill="#F6842D"/>
<path d="M121.783 0.00012207L262.564 0.000121114L262.564 140.674L121.783 140.674L121.783 0.00012207Z" fill="#F9E050"/>
<path d="M544.031 652.804L735.227 652.804L735.227 842.904L544.031 842.904L544.031 652.804Z" fill="#F6842D"/>
<path d="M262.465 140.768L403.246 140.768L403.246 281.442L262.465 281.442L262.465 140.768Z" fill="#F4F464"/>
<path d="M683.953 512.129L875.149 512.129L875.149 703.18L683.953 703.18L683.953 512.129Z" fill="#F4AC2B"/>
<path d="M683.953 371.743L875.149 371.743L875.149 562.793L683.953 562.793L683.953 371.743Z" fill="#F6842D"/>
<path d="M683.953 230.781L875.149 230.781L875.149 421.832L683.953 421.832L683.953 230.781Z" fill="#F4AC2B"/>
<path d="M683.953 90.4869L875.149 90.4869L875.149 281.538L683.953 281.538L683.953 90.4869Z" fill="#F6842D"/>
<path d="M684.904 842.905L684.904 703.181L824.733 703.181L824.733 140.675L683.952 140.675L683.952 0.000305176L1061.3 0.000302612C1118 0.000302227 1167.08 6.4638 1208.36 19.4857C1249.64 32.3174 1283.51 54.9393 1310.14 87.2563C1336.78 119.573 1356.75 163.297 1369.69 218.426C1382.63 273.365 1389 343.226 1389 428.201C1389 513.936 1383.01 583.513 1370.93 636.741C1358.75 690.92 1339.73 733.027 1313.85 762.968C1288.21 794.006 1253.32 816.051 1214.26 825.891C1173.83 837.297 1124.84 843 1067.49 843L824.638 843L684.904 842.905ZM971.507 727.609L1062.54 727.609C1093.93 727.609 1121.13 723.997 1143.77 716.773C1167.43 710.122 1187.49 694.408 1199.61 673.05C1214.26 651.189 1224.72 620.488 1231.19 580.852C1238.52 541.216 1242.13 488.653 1242.13 423.068C1242.13 357.674 1238.33 304.731 1231.1 264.335C1224.72 224.699 1214.26 193.617 1199.71 170.996C1186.26 150.106 1166.15 134.365 1142.63 126.322C1119.8 119.003 1093.17 115.391 1062.44 115.391L971.507 115.391L971.507 727.609Z" fill="#F14D34"/>
<path d="M544.03 562.505L684.811 562.505L684.811 703.18L544.03 703.18L544.03 562.505Z" fill="#F9E050"/>
<path d="M403.248 0.000549316L544.029 0.00054836L544.029 140.675L403.248 140.675L403.248 0.000549316Z" fill="#F9B038"/>
<path d="M403.248 703.18L544.029 703.18L544.029 842.904L403.248 842.904L403.248 703.18Z" fill="#F9E050"/>
</g>
<defs>
<filter id="filter0_d_94_279" x="-41.1411" y="0" width="1452.28" height="922.339" filterUnits="userSpaceOnUse" color-interpolation-filters="sRGB">
<feFlood flood-opacity="0" result="BackgroundImageFix"/>
<feColorMatrix in="SourceAlpha" type="matrix" values="0 0 0 0 0 0 0 0 0 0 0 0 0 0 0 0 0 0 127 0" result="hardAlpha"/>
<feOffset dy="57.1978"/>
<feGaussianBlur stdDeviation="11.0705"/>
<feColorMatrix type="matrix" values="0 0 0 0 0 0 0 0 0 0.0495833 0 0 0 0 0.145833 0 0 0 0.25 0"/>
<feBlend mode="normal" in2="BackgroundImageFix" result="effect1_dropShadow_94_279"/>
<feBlend mode="normal" in="SourceGraphic" in2="effect1_dropShadow_94_279" result="shape"/>
</filter>
</defs>
</svg>
